<svg width="12" height="12" viewBox="0 0 12 12" fill="none" xmlns="http://www.w3.org/2000/svg">
<path d="M0.191807 8.95153L0.584883 9.34734C0.708591 9.47095 0.873178 9.53905 1.04908 9.53905C1.22489 9.53905 1.38967 9.47095 1.51338 9.34734L5.99732 4.86321L10.4864 9.35232C10.6099 9.47593 10.7747 9.54393 10.9505 9.54393C11.1263 9.54393 11.2912 9.47593 11.4148 9.35232L11.808 8.95895C12.064 8.70314 12.064 8.28646 11.808 8.03065L6.46318 2.66661C6.33966 2.54309 6.17508 2.45607 5.99771 2.45607L5.99566 2.45607C5.81976 2.45607 5.65517 2.54319 5.53165 2.66661L0.191807 8.01611C0.0680982 8.13962 0.000194658 8.30919 9.25751e-08 8.48499C7.71971e-08 8.6609 0.0680981 8.82812 0.191807 8.95153Z" fill="#39CF91"/>
</svg>
