<svg width="20" height="20" viewBox="0 0 20 20" fill="none" xmlns="http://www.w3.org/2000/svg">
<g clip-path="url(#clip0)">
<path d="M10.0015 19.9999C15.5241 19.9999 20.0011 15.523 20.0011 10.0004C20.0011 4.4778 15.5241 0.000846863 10.0015 0.000846863C4.47891 0.000846863 0.00195312 4.4778 0.00195312 10.0004C0.00195312 15.523 4.47891 19.9999 10.0015 19.9999Z" fill="#D62427"/>
<path d="M0 10.0001C0 4.47677 4.47711 0 9.99977 0C15.5228 0 15.5228 20 9.99977 20C4.47723 19.9998 0 15.5227 0 10.0001Z" fill="#DC3027"/>
<path d="M5.76829 2.7532L6.23489 4.19004H7.74574L6.52352 5.07755L6.99042 6.51439L5.76829 5.62657L4.54625 6.51439L5.0131 5.07755L3.79102 4.19004H5.30144L5.76829 2.7532Z" fill="#F8D12E"/>
<path d="M9.29214 1.93595L9.14499 2.43996L9.57862 2.73569L9.05409 2.75101L8.90724 3.25532L8.72995 2.76093L8.20508 2.77689L8.6205 2.45558L8.44321 1.96154L8.87709 2.25726L9.29214 1.93595Z" fill="#F8D12E"/>
<path d="M9.29214 6.44966L9.14499 6.9535L9.57862 7.24923L9.05409 7.26472L8.90724 7.76886L8.72995 7.27452L8.20508 7.29061L8.6205 6.96929L8.44321 6.47525L8.87709 6.77068L9.29214 6.44966Z" fill="#F8D12E"/>
<path d="M10.5714 3.31169L10.4243 3.8157L10.858 4.11143L10.3334 4.12705L10.1863 4.63106L10.0091 4.13668L9.48438 4.15264L9.89951 3.83132L9.72243 3.33728L10.1564 3.633L10.5714 3.31169Z" fill="#F8D12E"/>
<path d="M10.5714 5.15179L10.4243 5.6558L10.858 5.95153L10.3334 5.96698L10.1863 6.47116L10.0091 5.97694L9.48438 5.9929L9.89951 5.67159L9.72243 5.17751L10.1564 5.47294L10.5714 5.15179Z" fill="#F8D12E"/>
</g>
<defs>
<clipPath id="clip0">
<rect width="20" height="20" fill="white"/>
</clipPath>
</defs>
</svg>
