<svg width="20" height="20" viewBox="0 0 20 20" fill="none" xmlns="http://www.w3.org/2000/svg">
<g clip-path="url(#clip0)">
<path d="M1.76023 4.33377C1.11537 5.26976 0.625288 6.32072 0.328125 7.45031H4.87693L1.76023 4.33377Z" fill="#29337A"/>
<path d="M7.19986 0.400272C6.04769 0.735815 4.98064 1.27124 4.04102 1.9696L7.19986 5.12844V0.400272Z" fill="#29337A"/>
<path d="M4.27539 18.1972C5.15675 18.8139 6.14142 19.2914 7.19931 19.5994V15.2737L4.27539 18.1972Z" fill="#29337A"/>
<path d="M0.441406 12.9527C0.772051 14.0237 1.27872 15.0173 1.92625 15.9012L4.87478 12.9527H0.441406Z" fill="#29337A"/>
<path d="M1.92705 4.10167C1.87115 4.1781 1.81605 4.25562 1.76205 4.33394L4.87875 7.45047H0.329942C0.256221 7.73104 0.196054 8.01702 0.146484 8.30692H6.13264L1.92705 4.10167Z" fill="white"/>
<path d="M4.04492 18.0322C4.12101 18.0889 4.1992 18.1428 4.27685 18.1972L7.20077 15.2736V19.5993C7.48167 19.6814 7.76697 19.7523 8.05721 19.8093V14.02L4.04492 18.0322Z" fill="white"/>
<path d="M0.222656 12.0962C0.284723 12.3864 0.35798 12.6722 0.444663 12.9527H4.87808L1.92955 15.9012C2.25023 16.3394 2.60583 16.7505 2.99221 17.1307L8.02666 12.0962H0.222656Z" fill="white"/>
<path d="M7.20088 0.400273V5.12844L4.04199 1.96977C3.60651 2.29362 3.19944 2.65314 2.82227 3.04235L8.05715 8.27724V0.190258C7.76708 0.247596 7.48178 0.318657 7.20088 0.400273Z" fill="white"/>
<path d="M7.19799 12.9225L7.16797 12.9527H7.19799V12.9225Z" fill="#D32030"/>
<path d="M8.02539 12.0962H8.05537V12.0661L8.02539 12.0962Z" fill="#D32030"/>
<path d="M11.8746 8.30675H11.8457V8.3358L11.8746 8.30675Z" fill="#D32030"/>
<path d="M7.22678 7.45047L7.19727 7.42079V7.45047H7.22678Z" fill="#D32030"/>
<path d="M8.05469 8.27719V8.30675H8.08424L8.05469 8.27719Z" fill="#D32030"/>
<path d="M12.7012 17.3858V19.6274C13.7728 19.3274 14.772 18.8545 15.6657 18.2384L13.2368 15.8095C13.0427 16.4914 12.9716 16.844 12.7012 17.3858Z" fill="#252F6C"/>
<path d="M13.2496 4.57993L15.9011 1.9284C14.9485 1.2308 13.8679 0.699171 12.7012 0.372326V2.67506C13.013 3.29953 13.0392 3.77403 13.2496 4.57993Z" fill="#252F6C"/>
<path d="M18.0302 15.9595C18.698 15.0612 19.2184 14.0472 19.5565 12.9527H15.0234L18.0302 15.9595Z" fill="#252F6C"/>
<path d="M19.6721 7.45049C19.3686 6.29705 18.8638 5.22636 18.1986 4.27568L15.0234 7.45049H19.6721Z" fill="#252F6C"/>
<path d="M13.834 12.2657L14.5212 12.9528L17.8104 16.2421C17.8851 16.1486 17.9593 16.0555 18.0307 15.9596L15.0239 12.9528H19.5569C19.6433 12.6726 19.7167 12.3866 19.7786 12.0964H13.8982C13.8886 12.2178 13.8455 12.145 13.834 12.2657Z" fill="#E7E7E7"/>
<path d="M13.1474 5.08141L16.1286 2.09986C16.0539 2.04193 15.9791 1.98429 15.9028 1.92839L13.2512 4.57993C13.2787 4.68477 13.1218 4.97403 13.1474 5.08141Z" fill="#E7E7E7"/>
<path d="M12.7021 2.49079V0.372144C12.4216 0.293526 12.1359 0.226898 11.8457 0.172558V1.206C12.1644 1.55146 12.45 1.98538 12.7021 2.49079Z" fill="#E7E7E7"/>
<path d="M13.767 8.30674H19.8553C19.8058 8.01683 19.7455 7.73103 19.6718 7.45029H15.0232L18.1983 4.2755C17.8862 3.82958 17.5393 3.41023 17.1603 3.02166L13.584 6.59765C13.6803 7.24632 13.7234 7.62303 13.767 8.30674Z" fill="#E7E7E7"/>
<path d="M13.0938 15.6647L15.6673 18.2385C16.0954 17.9437 16.4985 17.6156 16.8746 17.2594L13.4895 13.8741C13.3814 14.5002 13.2532 15.1049 13.0938 15.6647Z" fill="#E7E7E7"/>
<path d="M11.8457 18.6751V19.8269C12.1359 19.7729 12.4214 19.706 12.7021 19.6273V17.3857C12.4498 17.8913 12.1642 18.3301 11.8457 18.6751Z" fill="#E7E7E7"/>
<path d="M13.5844 6.59766L17.1604 3.02166C16.8385 2.69102 16.4933 2.3833 16.1283 2.09986L13.3184 4.91024C13.4433 5.43223 13.5 6.02973 13.5844 6.59766Z" fill="#D71F28"/>
<path d="M9.5 0.012329C9.66661 0.00426448 9.83271 0 9.99894 0C9.83174 0 9.66534 0.00426448 9.5 0.012329Z" fill="#D32030"/>
<path d="M9.99865 20C9.83238 20 9.66627 19.9954 9.5 19.9874C9.66534 19.9957 9.83145 20 9.99865 20Z" fill="#D32030"/>
<path d="M10 20C10.6309 20 11.247 19.9389 11.8455 19.8269V18.6751C11.3202 19.2445 10.7057 20 10 20Z" fill="#D32030"/>
<path d="M19.8543 8.30675H13.8452C13.9247 9.56093 13.9151 10.8506 13.8164 12.0962H19.7782C19.9226 11.4199 19.9999 10.7192 19.9999 10.0002C19.9999 9.42256 19.9484 8.85763 19.8543 8.30675Z" fill="#D71F28"/>
<path d="M13.8337 12.2657C13.7782 12.8565 13.5846 13.3169 13.4883 13.8743L16.8734 17.2594C17.2083 16.942 17.5214 16.6026 17.81 16.2421L14.5209 12.9527L13.8337 12.2657Z" fill="#D71F28"/>
<path d="M11.8455 1.28036V0.172733C11.2473 0.0610962 10.6311 0 10 0C10.7057 0 11.3202 0.711156 11.8455 1.28036Z" fill="#D32030"/>
<path d="M12.7031 17.8182C12.9736 17.2763 13.2055 16.6525 13.3998 15.9707L12.7031 15.2741V17.8182Z" fill="#29337A"/>
<path d="M13.4864 4.34496C13.2758 3.53906 13.015 2.80641 12.7031 2.18193V5.12794L13.4864 4.34496Z" fill="#29337A"/>
<path d="M14.0293 12.4596C14.0407 12.3389 14.051 12.2178 14.0608 12.0962H13.666L14.0293 12.4596Z" fill="white"/>
<path d="M12.7021 5.12798V2.18182C12.4498 1.67641 12.1644 1.2422 11.8457 0.897026V6.382L13.5656 4.66206C13.5398 4.55469 13.5126 4.44951 13.4854 4.34467L12.7021 5.12798Z" fill="white"/>
<path d="M11.875 8.30675H14.0887C14.0453 7.62309 13.9761 6.95044 13.8799 6.30194L11.875 8.30675Z" fill="white"/>
<path d="M11.8457 19.1029C12.1644 18.7574 12.4498 18.3235 12.7021 17.8181V15.2739L13.3988 15.9705C13.5585 15.4105 13.6926 14.8122 13.8009 14.1862L11.8457 12.2311L11.8457 19.1029Z" fill="white"/>
<path d="M11.8453 19.1029V12.2311L13.8004 14.1863C13.8966 13.6287 13.9722 13.0505 14.0276 12.4596L13.6643 12.0962H14.059C14.1577 10.8506 14.1673 9.56088 14.0878 8.30675H11.8741L13.8789 6.30193C13.7944 5.73383 13.6899 5.18434 13.565 4.66218L11.8454 6.38211V0.897146C11.32 0.327774 10.7055 0 9.99983 0C9.83356 0 9.66745 0.00426448 9.50089 0.012329C9.00904 0.0369448 8.52668 0.0974498 8.05582 0.190297V8.27723L2.82081 3.04235C2.49916 3.37426 2.19997 3.72792 1.92615 4.10167L5.27495 7.45047L6.13169 8.30692H0.145584C0.0518071 8.85763 0 9.42256 0 10.0002C0 10.7194 0.0776896 11.4199 0.221669 12.0962H8.02584L2.99134 17.1307C3.32102 17.4546 3.67201 17.7562 4.04357 18.0321L8.05569 14.02V19.8094C8.52652 19.9023 9.0092 19.9627 9.50105 19.9874C9.66733 19.9954 9.83343 20 9.9997 20C10.7055 20 11.32 19.6722 11.8453 19.1029Z" fill="#E51D35"/>
</g>
<defs>
<clipPath id="clip0">
<rect width="20" height="20" fill="white"/>
</clipPath>
</defs>
</svg>
