<svg width="24" height="24" viewBox="0 0 24 24" fill="none" xmlns="http://www.w3.org/2000/svg">
<g clip-path="url(#clip0)">
<path d="M14.9051 5.89381C14.938 5.85682 15.0915 5.73597 15.6946 5.73597L17.6718 5.73524C18.315 5.73524 18.8381 5.21302 18.8381 4.57105V1.12207C18.8381 0.481202 18.3157 -0.0410156 17.6736 -0.0421143L14.7367 -0.046875C12.9241 -0.046875 11.3832 0.549867 10.2806 1.67908C9.18291 2.80317 8.60261 4.37238 8.60261 6.21681V8.07698H6.35592C5.71269 8.07698 5.18945 8.5992 5.18945 9.24117V12.9557C5.18945 13.5976 5.71269 14.1198 6.35592 14.1198H8.60261V22.789C8.60261 23.431 9.12585 23.9532 9.76908 23.9532H13.62C14.2632 23.9532 14.7864 23.431 14.7864 22.789V14.12H17.5327C18.1759 14.12 18.699 13.5976 18.699 12.956L18.7005 9.24135C18.7005 8.81966 18.4706 8.42946 18.1004 8.2231C17.9288 8.12752 17.7292 8.07698 17.5234 8.07698H14.7864V6.60737C14.7864 6.12837 14.851 5.95497 14.9051 5.89381Z" fill="white"/>
</g>
<defs>
<clipPath id="clip0">
<rect width="24" height="24" fill="white"/>
</clipPath>
</defs>
</svg>
