<svg width="20" height="20" viewBox="0 0 20 20" fill="none" xmlns="http://www.w3.org/2000/svg">
<g clip-path="url(#clip0)">
<path d="M10.0015 20C15.5241 20 20.0011 15.523 20.0011 10.0004C20.0011 4.47781 15.5241 0.000846863 10.0015 0.000846863C4.47892 0.000846863 0.00195312 4.47781 0.00195312 10.0004C0.00195312 15.523 4.47892 20 10.0015 20Z" fill="white"/>
<path d="M19.4268 6.66585H13.2656C13.5331 8.80202 13.5348 11.1558 13.2707 13.2946H19.4401C19.8001 12.2627 19.9982 11.1547 19.9982 10.0001C19.9984 8.83039 19.7956 7.7087 19.4268 6.66585Z" fill="#D32027"/>
<path d="M13.2657 6.66585H19.4269C19.4258 6.66268 19.4249 6.66002 19.4238 6.65715C18.1439 3.04847 14.8519 0.393471 10.8965 0.0410385C12.4271 0.880086 12.8741 3.53842 13.2657 6.66585Z" fill="#0B0B0B"/>
<path d="M10.8984 19.9585C14.8609 19.6054 18.1576 16.9413 19.4325 13.323C19.4358 13.3133 19.4386 13.3039 19.4421 13.2945H13.2725C12.8843 16.4389 12.4354 19.116 10.8984 19.9585Z" fill="#F3C515"/>
<path d="M0 10.0001C0 11.1548 0.198151 12.2627 0.558141 13.2945H13.787C14.0512 11.1555 14.0494 8.80198 13.782 6.66581H0.571441C0.202584 7.70871 0 8.83039 0 10.0001Z" fill="#DB2727"/>
<path d="M0.575432 6.65715C0.574335 6.65998 0.573363 6.66268 0.572266 6.66585H13.783C13.3914 3.53842 12.4295 0.88013 10.8991 0.0410826C10.603 0.0148624 10.3036 0 10.0008 0C5.65063 0 1.951 2.77833 0.575432 6.65715Z" fill="#151515"/>
<path d="M13.7875 13.2945H0.558594C0.561929 13.3039 0.564927 13.3133 0.56822 13.323C1.93843 17.2117 5.64295 19.9998 10.0002 19.9998C10.3031 19.9998 10.6024 19.985 10.8984 19.9585C12.4354 19.116 13.3992 16.4389 13.7875 13.2945Z" fill="#F8D12E"/>
</g>
<defs>
<clipPath id="clip0">
<rect width="20" height="20" fill="white"/>
</clipPath>
</defs>
</svg>
