<svg width="20" height="20" viewBox="0 0 20 20" fill="none" xmlns="http://www.w3.org/2000/svg">
<g clip-path="url(#clip0)">
<path d="M13.3349 0.571472L12.168 3.80705C13.2451 7.36186 13.2451 12.6381 12.168 16.1931L13.3349 19.4283C17.2183 18.0551 20.0011 14.3534 20.0011 9.99965C20.0011 5.64658 17.2183 1.94471 13.3349 0.571472Z" fill="#E63026"/>
<path d="M13.334 3.80706V0.571485C12.2911 0.202674 11.1694 9.15527e-05 10 9.15527e-05C11.542 9.15527e-05 9.40395 5.22606 13.334 3.80706Z" fill="#E4E4E4"/>
<path d="M10.0002 19.9999C11.1695 19.9999 12.2913 19.7973 13.3341 19.4285V16.1932C9.44363 15.805 10.0002 19.9999 10.0002 19.9999Z" fill="#E4E4E4"/>
<path d="M0 9.99979C0 14.3681 2.80166 18.0796 6.70515 19.4417V0.558563C2.80166 1.92069 0 5.63216 0 9.99979Z" fill="#359846"/>
<path d="M13.334 3.80707V16.1931C14.4113 12.6381 14.4113 7.36184 13.334 3.80707Z" fill="#EF4C4C"/>
<path d="M13.3338 16.1932V3.80706C12.653 1.55961 11.5418 9.15527e-05 9.99985 9.15527e-05C8.84503 9.15527e-05 7.73707 0.198409 6.70508 0.558565V19.4418C7.73707 19.8019 8.84503 20 9.99985 20C11.5418 19.9999 12.653 18.4404 13.3338 16.1932Z" fill="#F3F4F5"/>
</g>
<defs>
<clipPath id="clip0">
<rect width="20" height="20" fill="white"/>
</clipPath>
</defs>
</svg>
