<svg width="38" height="38" viewBox="0 0 38 38" fill="none" xmlns="http://www.w3.org/2000/svg">
<g clip-path="url(#clip0)">
<path d="M1.18747 11.875H36.8124C37.468 11.875 37.9999 11.343 37.9999 10.6875C37.9999 10.032 37.4679 9.50006 36.8124 9.50006H1.18747C0.531943 9.50006 0 10.0321 0 10.6875C0 11.343 0.532041 11.875 1.18747 11.875Z" fill="white"/>
<path d="M36.8124 17.8125H1.18747C0.531943 17.8125 0 18.3446 0 19C0 19.6554 0.532041 20.1875 1.18747 20.1875H36.8124C37.468 20.1875 37.9999 19.6554 37.9999 19C37.9999 18.3446 37.468 17.8125 36.8124 17.8125Z" fill="white"/>
<path d="M36.8124 26.125H13.0625C12.4069 26.125 11.875 26.6571 11.875 27.3125C11.875 27.968 12.407 28.5 13.0625 28.5H36.8124C37.468 28.5 37.9999 27.9679 37.9999 27.3125C38 26.657 37.468 26.125 36.8124 26.125Z" fill="white"/>
</g>
<defs>
<clipPath id="clip0">
<rect width="38" height="38" fill="white"/>
</clipPath>
</defs>
</svg>
