<svg width="30" height="30" viewBox="0 0 30 30" fill="none" xmlns="http://www.w3.org/2000/svg">
<g clip-path="url(#clip0)">
<path d="M16.6574 15.0008L29.6568 2.00133C30.1144 1.54365 30.1144 0.80162 29.6568 0.344004C29.1991 -0.113613 28.4571 -0.113671 27.9995 0.344004L15 13.3435L2.00058 0.344004C1.5429 -0.113671 0.800872 -0.113671 0.343256 0.344004C-0.11436 0.801679 -0.114419 1.54371 0.343256 2.00133L13.3427 15.0007L0.343256 28.0002C-0.114419 28.4579 -0.114419 29.1999 0.343256 29.6575C0.572064 29.8863 0.872005 30.0007 1.17195 30.0007C1.47189 30.0007 1.77177 29.8863 2.00064 29.6575L15 16.6581L27.9994 29.6575C28.2282 29.8863 28.5281 30.0007 28.8281 30.0007C29.128 30.0007 29.4279 29.8863 29.6568 29.6575C30.1144 29.1999 30.1144 28.4578 29.6568 28.0002L16.6574 15.0008Z" fill="white"/>
</g>
<defs>
<clipPath id="clip0">
<rect width="30" height="30" fill="white"/>
</clipPath>
</defs>
</svg>
