<svg width="20" height="20" viewBox="0 0 20 20" fill="none" xmlns="http://www.w3.org/2000/svg">
<g clip-path="url(#clip0)">
<path d="M20 10C20 15.5227 15.5227 20 10 20C9.18569 20 8.39468 19.9027 7.63681 19.719C3.25481 18.6573 0 14.7088 0 10C0 5.29121 3.25481 1.34274 7.63681 0.280982C8.39468 0.0973415 9.18569 0 10 0C15.5227 0 20 4.4773 20 10Z" fill="#E04955"/>
<path d="M7.63681 0.280975V19.719C3.25481 18.6572 0 14.7088 0 9.99999C0 5.2912 3.25481 1.34273 7.63681 0.280975Z" fill="#5DB33A"/>
<path d="M7.63723 14.233C9.97501 14.233 11.8702 12.3378 11.8702 10C11.8702 7.66227 9.97501 5.76712 7.63723 5.76712C5.29944 5.76712 3.4043 7.66227 3.4043 10C3.4043 12.3378 5.29944 14.233 7.63723 14.233Z" fill="#FED22B"/>
<path d="M7.63688 13.0184C6.41467 13.0184 5.42383 12.0276 5.42383 10.8054V7.87643H9.84989V10.8054C9.84989 12.0276 8.85909 13.0184 7.63688 13.0184Z" fill="#FFF5F4"/>
<path d="M6.87049 9.98959H6.41666C6.34296 9.98959 6.2832 10.0493 6.2832 10.1231V10.4666C6.2832 10.6656 6.44455 10.8269 6.64357 10.8269C6.84259 10.8269 7.00394 10.6656 7.00394 10.4666V10.1231C7.0039 10.0493 6.94419 9.98959 6.87049 9.98959Z" fill="#4377C6"/>
<path d="M7.86463 9.98959H7.4108C7.3371 9.98959 7.27734 10.0493 7.27734 10.1231V10.4666C7.27734 10.6656 7.43869 10.8269 7.63771 10.8269C7.83673 10.8269 7.99808 10.6656 7.99808 10.4666V10.1231C7.99808 10.0493 7.93833 9.98959 7.86463 9.98959Z" fill="#4377C6"/>
<path d="M7.86463 8.84135H7.4108C7.3371 8.84135 7.27734 8.90111 7.27734 8.97481V9.31829C7.27734 9.5173 7.43869 9.67865 7.63771 9.67865C7.83673 9.67865 7.99808 9.5173 7.99808 9.31829V8.97481C7.99808 8.90111 7.93833 8.84135 7.86463 8.84135Z" fill="#4377C6"/>
<path d="M7.86463 11.1378H7.4108C7.3371 11.1378 7.27734 11.1976 7.27734 11.2713V11.6148C7.27734 11.8138 7.43869 11.9752 7.63771 11.9752C7.83673 11.9752 7.99808 11.8138 7.99808 11.6148V11.2713C7.99808 11.1976 7.93833 11.1378 7.86463 11.1378Z" fill="#4377C6"/>
<path d="M8.85681 9.98959H8.40299C8.32929 9.98959 8.26953 10.0493 8.26953 10.1231V10.4666C8.26953 10.6656 8.43088 10.8269 8.6299 10.8269C8.82892 10.8269 8.99027 10.6656 8.99027 10.4666V10.1231C8.99027 10.0493 8.93052 9.98959 8.85681 9.98959Z" fill="#4377C6"/>
<path d="M9.84999 7.56966H5.42394C5.25453 7.56966 5.11719 7.70696 5.11719 7.8764V10.8054C5.11719 12.1948 6.24754 13.3252 7.63694 13.3252C9.02635 13.3252 10.1567 12.1948 10.1567 10.8054V7.8764C10.1567 7.707 10.0194 7.56966 9.84999 7.56966ZM9.54324 10.8054C9.54324 11.8565 8.68807 12.7117 7.63694 12.7117C6.58582 12.7117 5.73068 11.8565 5.73068 10.8054V8.18315H9.54324V10.8054Z" fill="#E5646E"/>
<path d="M2.21309 9.99999C2.21309 13.8736 4.41595 17.2327 7.63681 18.8932V19.719C3.25481 18.6572 0 14.7088 0 9.99999C0 5.2912 3.25481 1.34273 7.63681 0.280975V1.10674C4.41595 2.76727 2.21309 6.12637 2.21309 9.99999Z" fill="#5DB33A"/>
<path d="M2.21309 9.99999C2.21309 13.8736 4.41595 17.2327 7.63681 18.8932V19.719C3.25481 18.6572 0 14.7088 0 9.99999C0 5.2912 3.25481 1.34273 7.63681 0.280975V1.10674C4.41595 2.76727 2.21309 6.12637 2.21309 9.99999Z" fill="#5CA33B"/>
<path d="M7.63672 18.8932V19.719C8.39459 19.9027 9.18559 20 9.9999 20C10.3741 20 10.7435 19.9795 11.1071 19.9395C10.6792 19.8924 10.2596 19.8184 9.8498 19.719C9.07271 19.5309 8.33079 19.2515 7.63672 18.8932Z" fill="#DA2F3C"/>
<path d="M11.1071 0.0605317C10.7435 0.0204499 10.3741 0 9.9999 0C9.18559 0 8.39459 0.0973415 7.63672 0.280982V1.10675C8.33079 0.748466 9.07271 0.469121 9.8498 0.280982C10.2596 0.181595 10.6792 0.107566 11.1071 0.0605317Z" fill="#DA2F3C"/>
</g>
<defs>
<clipPath id="clip0">
<rect width="20" height="20" fill="white"/>
</clipPath>
</defs>
</svg>
