<svg width="24" height="24" viewBox="0 0 24 24" fill="none" xmlns="http://www.w3.org/2000/svg">
<g clip-path="url(#clip0)">
<path d="M23.309 14.5464C25.047 6.7364 18.205 -0.358603 10.17 1.0034C5.808 -1.7036 0 1.3554 0 6.5454C0 7.7524 0.333 8.8824 0.912 9.8564C-0.703 17.6844 6.195 24.6774 14.223 23.2224C19.898 26.2234 26.169 20.2384 23.309 14.5464ZM15.671 19.2564C13.563 20.1234 10.094 20.1284 7.995 19.0294C5.002 17.4334 4.47 13.8404 7.052 13.8404C8.998 13.8404 8.382 16.1094 10.347 17.0344C11.249 17.4514 13.188 17.4944 14.315 16.7344C15.428 15.9894 15.326 14.8174 14.721 14.2574C13.118 12.7774 8.531 13.3654 6.434 10.7744C5.523 9.6504 5.351 7.6674 6.471 6.2294C8.423 3.7174 14.151 3.5644 16.614 5.4614C18.888 7.2214 18.274 9.5574 16.439 9.5574C14.232 9.5574 15.392 6.6694 11.829 6.6694C9.246 6.6694 8.23 8.5064 10.049 9.4004C12.515 10.6254 18.799 10.2164 18.799 15.0034C18.794 16.9954 17.573 18.4804 15.671 19.2564Z" fill="white"/>
</g>
<defs>
<clipPath id="clip0">
<rect width="24" height="24" fill="white"/>
</clipPath>
</defs>
</svg>
