<svg width="20" height="20" viewBox="0 0 20 20" fill="none" xmlns="http://www.w3.org/2000/svg">
<g clip-path="url(#clip0)">
<path d="M10 20C13.1996 20 16.0457 18.496 17.8761 16.1581H12.6092C11.9293 18.4245 11.5498 20 10 20Z" fill="#C42126"/>
<path d="M9.40788 19.9828C9.40597 19.9828 9.40424 19.9825 9.40234 19.9825C9.40424 19.9825 9.40614 19.9828 9.40788 19.9828Z" fill="#C42126"/>
<path d="M12.6092 3.84193H17.8762C16.0457 1.50429 13.1995 0 10 0C11.5498 0 11.9293 1.57547 12.6092 3.84193Z" fill="#C42126"/>
<path d="M9.40234 0.0178643C9.40424 0.0178643 9.40597 0.0175687 9.40788 0.0175687C9.40614 0.0175265 9.40424 0.0175265 9.40234 0.0178643Z" fill="#C42126"/>
<path d="M17.8764 3.84193H12.6094C13.6723 7.38484 13.6723 12.6156 12.6094 16.158H17.876C19.2055 14.4603 20.0001 12.3238 20.0001 10.0001C20.0003 7.67648 19.2056 5.53981 17.8764 3.84193Z" fill="#FFC40C"/>
<path d="M10.0013 20C9.80231 20 9.60463 19.9942 9.4082 19.9828C9.60741 19.9938 9.80548 20 10.0013 20Z" fill="#C42126"/>
<path d="M9.4082 0.0175226C9.60458 0.0058268 9.80231 0 10.0013 0C9.80548 0 9.60741 0.00646015 9.4082 0.0175226Z" fill="#C42126"/>
<path d="M13.3456 16.1581H2.125C3.84023 18.3492 6.44807 19.8078 9.40213 19.9825C9.40403 19.9825 9.40576 19.9828 9.40766 19.9828C9.60408 19.9941 9.80177 20 10.0007 20C11.5506 20 12.6655 18.4245 13.3456 16.1581Z" fill="#D32030"/>
<path d="M2.125 3.84193H13.3456C12.6655 1.57547 11.5506 0 10.0008 0C9.80182 0 9.60413 0.0058268 9.4077 0.0175226C9.4058 0.0175226 9.40407 0.0178182 9.40217 0.0178182C6.44807 0.192327 3.84023 1.65114 2.125 3.84193Z" fill="#D32030"/>
<path d="M0 10.0001C0 12.3238 0.794683 14.4603 2.12417 16.158H13.3448C14.4077 12.6155 14.4077 7.38463 13.3448 3.84193H2.12417C0.794683 5.53981 0 7.67648 0 10.0001Z" fill="#FFD034"/>
</g>
<defs>
<clipPath id="clip0">
<rect width="20" height="20" fill="white"/>
</clipPath>
</defs>
</svg>
