<svg width="111" height="111" viewBox="0 0 111 111" fill="none" xmlns="http://www.w3.org/2000/svg">
<g clip-path="url(#clip0)">
<path d="M95.2526 105.37H15.7455C10.289 105.37 5.22043 102.544 2.35197 97.9018C-0.517341 93.2603 -0.778264 87.4641 1.66239 82.5828L41.4159 14.5215C44.0836 9.18785 49.5351 5.81787 55.499 5.81787C61.463 5.81787 66.9144 9.18785 69.5821 14.5215L109.336 82.5828C111.776 87.4641 111.515 93.2603 108.646 97.9018C105.778 102.544 100.71 105.37 95.2526 105.37Z" fill="#39CF91"/>
<path d="M95.2609 105.369H55.498V5.81769C61.4764 5.78041 66.9499 9.16395 69.5888 14.529L109.332 82.5877C111.776 87.4656 111.519 93.2618 108.652 97.9034C105.784 102.546 100.717 105.371 95.2609 105.369Z" fill="#32C085"/>
<path d="M63.1575 88.1394C63.1575 92.3692 59.7282 95.7976 55.4992 95.7976C51.2702 95.7976 47.8418 92.3692 47.8418 88.1394C47.8418 83.9104 51.2702 80.4819 55.4992 80.4819C59.7282 80.4819 63.1575 83.9104 63.1575 88.1394Z" fill="white"/>
<path d="M63.1563 88.1394C63.1563 90.1708 62.3498 92.1184 60.9139 93.5552C59.4771 94.9911 57.5295 95.7976 55.498 95.7976V80.4819C57.5295 80.4811 59.4771 81.2876 60.9139 82.7244C62.3498 84.1603 63.1563 86.1087 63.1563 88.1394Z" fill="white"/>
<path d="M55.4992 21.1335C59.7282 21.1335 63.1575 24.562 63.1575 28.7918V65.1661C63.1575 69.3951 59.7282 72.8235 55.4992 72.8235C51.2702 72.8235 47.8418 69.3951 47.8418 65.1661V28.7918C47.8418 24.562 51.2702 21.1335 55.4992 21.1335Z" fill="white"/>
<path d="M63.1563 28.7918V65.1661C63.1563 67.1976 62.3498 69.1452 60.9139 70.5811C59.4771 72.0179 57.5295 72.8243 55.498 72.8235V21.1336C57.5295 21.131 59.4797 21.9367 60.9164 23.3734C62.3524 24.8102 63.1589 26.7595 63.1563 28.7918Z" fill="white"/>
</g>
<defs>
<clipPath id="clip0">
<rect width="111" height="111" fill="white"/>
</clipPath>
</defs>
</svg>
