<svg width="65" height="65" viewBox="0 0 65 65" fill="none" xmlns="http://www.w3.org/2000/svg">
<path d="M32.5007 0C20.5539 0 10.834 9.71991 10.834 21.6667C10.834 25.2531 11.7307 28.8091 13.4353 31.9631L31.3158 64.3018C31.5539 64.7329 32.0075 65 32.5007 65C32.9939 65 33.4475 64.7329 33.6855 64.3018L51.5727 31.9524C53.2707 28.8091 54.1674 25.253 54.1674 21.6666C54.1674 9.71991 44.4475 0 32.5007 0ZM32.5007 32.5C26.5273 32.5 21.6674 27.6401 21.6674 21.6667C21.6674 15.6933 26.5273 10.8334 32.5007 10.8334C38.4741 10.8334 43.334 15.6933 43.334 21.6667C43.334 27.6401 38.4741 32.5 32.5007 32.5Z" fill="#39CF91"/>
</svg>
