<svg width="24" height="24" viewBox="0 0 24 24" fill="none" xmlns="http://www.w3.org/2000/svg">
<g clip-path="url(#clip0)">
<path d="M20.4852 3.5157C18.2187 1.24925 15.2053 0.000976562 12 0.000976562C8.79475 0.00102344 5.78131 1.24921 3.51477 3.5157C1.24832 5.78228 4.68748e-05 8.79568 0 12.001C0 15.2063 1.24823 18.2197 3.51477 20.4862C5.78131 22.7527 8.7948 24.0008 12 24.0008C15.2053 24.0008 18.2187 22.7526 20.4852 20.4862C22.7517 18.2197 24 15.2062 24 12.001C24 8.79568 22.7517 5.78228 20.4852 3.5157ZM18.7781 12.7041H12.7031L12.7031 18.7791C12.7031 19.1674 12.3883 19.4822 12 19.4822C11.6117 19.4822 11.2968 19.1674 11.2968 18.7791L11.2969 12.7041H5.22195C4.83359 12.7041 4.51883 12.3893 4.51883 12.001C4.51883 11.6127 4.83359 11.2979 5.22195 11.2979H11.2969L11.2969 5.22283C11.2969 4.83452 11.6117 4.51971 12 4.51971C12.3883 4.51971 12.7032 4.83452 12.7032 5.22283L12.7031 11.2979H18.7781C19.1664 11.2979 19.4812 11.6127 19.4812 12.001C19.4812 12.3893 19.1664 12.7041 18.7781 12.7041Z" fill="#27DEBF"/>
</g>
<defs>
<clipPath id="clip0">
<rect width="24" height="24" fill="white"/>
</clipPath>
</defs>
</svg>
